# This file uses centimeters as units for non-parametric coordinates.

mtllib graveWallFence.mtl
v 14.702677 -6.085203 0.945483
v 16.480505 -6.117281 0.945483
v 15.461107 24.925758 0.170391
v 15.689000 24.921646 0.170391
v 15.461107 24.925758 -0.057539
v 15.689000 24.921646 -0.057539
v 14.702677 -6.085203 -0.832632
v 16.480505 -6.117281 -0.832632
v 16.297453 15.678306 0.945483
v 14.519626 15.710381 0.945483
v 14.519626 15.710381 -0.832632
v 16.297453 15.678306 -0.832632
v 16.891993 16.685455 1.521760
v 13.961802 16.738321 1.521760
v 13.961802 16.738321 -1.408908
v 16.891993 16.685455 -1.408908
v 15.386851 15.694505 1.344919
v 15.655464 -6.101081 1.344919
v 15.655464 -6.101081 -1.232068
v 15.386851 15.694505 -1.232068
v 15.405295 16.712154 -2.067253
v 15.642624 24.923721 -0.108741
v 15.642624 24.923721 0.221593
v 15.405295 16.712154 2.180105
v 14.095551 15.710381 -0.024482
v 14.364164 -6.085203 -0.024482
v 15.655464 -6.101081 -0.024482
v 16.972977 -6.117280 -0.024482
v 16.704365 15.678306 -0.024482
v 17.576803 16.685455 -0.076925
v 15.811511 24.921642 0.046054
v 15.642624 24.923721 0.046054
v 15.477098 24.925758 0.046054
v 13.276991 16.738319 -0.076925
v 14.689326 2.346088 1.344919
v 15.547526 2.329888 0.945483
v 16.006840 2.329888 -0.024482
v 15.547526 2.329888 -0.832632
v 14.689326 2.346088 -1.232068
v 13.769699 2.361965 -0.832632
v 13.398026 2.361965 -0.024482
v 13.769699 2.361965 0.945483
v 8.507578 -5.774346 0.858535
v 10.081390 -5.463489 0.858535
v 3.260620 21.715893 0.159245
v 3.462361 21.755737 0.159245
v 3.260620 21.715893 -0.046393
v 3.462361 21.755737 -0.046393
v 8.507578 -5.774346 -0.745683
v 10.081390 -5.463489 -0.745683
v 5.762183 13.721006 0.858535
v 4.188371 13.410146 0.858535
v 4.188371 13.410146 -0.745683
v 5.762183 13.721006 -0.745683
v 6.094324 14.722528 1.378452
v 3.500387 14.210175 1.378452
v 3.500387 14.210175 -1.265600
v 6.094324 14.722528 -1.265600
v 4.956122 13.561582 1.218906
v 9.350778 -5.606591 1.218906
v 9.350778 -5.606591 -1.106055
v 4.956122 13.561582 -1.106055
v 4.778256 14.462465 -1.859560
v 3.421070 21.748724 -0.092588
v 3.421070 21.748724 0.205440
v 4.778256 14.462465 1.972412
v 3.814422 13.329248 -0.016569
v 8.209077 -5.838923 -0.016569
v 9.350778 -5.606591 -0.016569
v 10.515655 -5.369543 -0.016569
v 6.120999 13.798630 -0.016569
v 6.698192 14.853166 -0.063884
v 3.570391 21.779110 0.047069
v 3.421070 21.748724 0.047069
v 3.274720 21.718941 0.047069
v 2.896520 14.079537 -0.063884
v 7.820926 3.703473 1.218906
v 8.588184 3.854503 0.858534
v 8.985803 3.940521 -0.016569
v 8.588184 3.854503 -0.745683
v 7.820926 3.703473 -1.106055
v 7.014372 3.543643 -0.745683
v 6.679225 3.471141 -0.016569
v 7.014372 3.543643 0.858534
v -0.992287 10.970060 0.500000
v 30.685829 10.970060 0.500000
v -0.992287 11.970060 0.500000
v 30.685829 11.970060 0.500000
v -0.992287 11.970060 -0.500000
v 30.685829 11.970060 -0.500000
v -0.992287 10.970060 -0.500000
v 30.685829 10.970060 -0.500000
v 21.794853 -5.697438 0.858535
v 23.383741 -5.918698 0.858535
v 25.832476 21.996269 0.159245
v 26.036148 21.967905 0.159245
v 25.832476 21.996269 -0.046393
v 26.036148 21.967905 -0.046393
v 21.794853 -5.697438 -0.745683
v 23.383741 -5.918698 -0.745683
v 25.580126 13.622959 0.858535
v 23.991238 13.844215 0.858535
v 23.991238 13.844215 -0.745683
v 25.580126 13.622959 -0.745683
v 26.221710 14.460653 1.378452
v 23.602926 14.825327 1.378452
v 23.602926 14.825327 -1.265600
v 26.221710 14.460653 -1.265600
v 24.766273 13.736080 1.218906
v 22.646524 -5.814840 1.218906
v 22.646524 -5.814840 -1.106055
v 24.766273 13.736080 -1.106055
v 24.893000 14.645568 -1.859560
v 25.994835 21.974789 -0.092588
v 25.994835 21.974789 0.205440
v 24.893000 14.645568 1.972412
v 23.611404 13.890141 -0.016569
v 21.491655 -5.660780 -0.016569
v 22.646524 -5.814840 -0.016569
v 23.824839 -5.972029 -0.016569
v 25.944588 13.578892 -0.016569
v 26.835079 14.386492 -0.063884
v 26.145878 21.954638 0.047069
v 25.994835 21.974789 0.047069
v 25.846798 21.994537 0.047069
v 22.989557 14.899488 -0.063884
v 24.399811 4.985506 1.218906
v 25.179363 4.876531 0.858534
v 25.578125 4.828318 -0.016569
v 25.179363 4.876531 -0.745683
v 24.399811 4.985506 -1.106055
v 23.590475 5.097789 -0.745683
v 23.244942 5.139566 -0.016569
v 23.590475 5.097789 0.858534
v -0.992287 -2.384774 0.500000
v 30.685829 -2.384774 0.500000
v -0.992287 -1.384774 0.500000
v 30.685829 -1.384774 0.500000
v -0.992287 -1.384774 -0.500000
v 30.685829 -1.384774 -0.500000
v -0.992287 -2.384774 -0.500000
v 30.685829 -2.384774 -0.500000
vt 0.938044 0.556019
vt 0.925120 0.557327
vt 0.943178 0.314172
vt 0.926073 0.315899
vt 0.919591 0.162911
vt 0.918946 0.164276
vt 0.918772 0.162188
vt 0.916945 0.164128
vt 0.893066 0.315378
vt 0.898846 0.560246
vt 0.873235 0.310792
vt 0.880645 0.558273
vt 0.900642 0.712608
vt 0.924517 0.710108
vt 0.933200 0.712976
vt 0.934795 0.709066
vt 0.903823 0.558416
vt 0.908849 0.314758
vt 0.969954 0.556624
vt 0.951423 0.556956
vt 0.977580 0.309201
vt 0.958931 0.314615
vt 0.945193 0.292677
vt 0.926532 0.297071
vt 0.988726 0.280366
vt 0.958519 0.294097
vt 0.863855 0.283740
vt 0.893258 0.294985
vt 0.907748 0.292850
vt 0.920678 0.160458
vt 0.921373 0.162447
vt 0.919115 0.159544
vt 0.917750 0.161374
vt 0.965128 0.713200
vt 0.946672 0.710315
vt 0.861150 0.313793
vt 0.864874 0.560379
vt 0.852512 0.286293
vt 0.920150 0.158261
vt 0.990939 0.314040
vt 0.975433 0.559863
vt 0.931823 0.716454
vt 0.965620 0.715424
vt 0.902504 0.715203
vt 0.997056 0.284169
vt 0.885335 0.714885
vt 0.867231 0.716424
vt 0.925273 0.518639
vt 0.926073 0.315899
vt 0.938866 0.517264
vt 0.943178 0.314172
vt 0.919591 0.162911
vt 0.918946 0.164276
vt 0.918772 0.162188
vt 0.916945 0.164128
vt 0.897920 0.521006
vt 0.879458 0.518615
vt 0.893066 0.315378
vt 0.873235 0.310792
vt 0.900642 0.712608
vt 0.924517 0.710108
vt 0.933200 0.712976
vt 0.934795 0.709066
vt 0.904628 0.519371
vt 0.908849 0.314758
vt 0.977580 0.309201
vt 0.971176 0.516976
vt 0.958931 0.314615
vt 0.952626 0.518122
vt 0.945193 0.292677
vt 0.926532 0.297071
vt 0.988726 0.280366
vt 0.958519 0.294097
vt 0.863855 0.283740
vt 0.893258 0.294985
vt 0.907748 0.292850
vt 0.920678 0.160458
vt 0.921373 0.162447
vt 0.919115 0.159544
vt 0.917750 0.161374
vt 0.965128 0.713200
vt 0.946672 0.710315
vt 0.864277 0.520864
vt 0.861150 0.313793
vt 0.852512 0.286293
vt 0.920150 0.158261
vt 0.977917 0.520470
vt 0.990939 0.314040
vt 0.931823 0.716454
vt 0.965620 0.715424
vt 0.902504 0.715203
vt 0.997056 0.284169
vt 0.885335 0.714885
vt 0.867231 0.716424
vt 0.936512 0.411319
vt 0.936512 0.653701
vt 0.907770 0.411319
vt 0.907770 0.653701
vt 0.907770 0.411319
vt 0.907770 0.653701
vt 0.936512 0.411319
vt 0.936512 0.653701
vt 0.925377 0.492338
vt 0.926073 0.315899
vt 0.939426 0.490918
vt 0.943178 0.314172
vt 0.919591 0.162911
vt 0.918946 0.164276
vt 0.918772 0.162188
vt 0.916945 0.164128
vt 0.897290 0.494331
vt 0.878651 0.491655
vt 0.893066 0.315378
vt 0.873235 0.310792
vt 0.900642 0.712608
vt 0.924517 0.710108
vt 0.933200 0.712976
vt 0.934795 0.709066
vt 0.905176 0.492827
vt 0.908849 0.314758
vt 0.977580 0.309201
vt 0.972007 0.490022
vt 0.958931 0.314615
vt 0.953444 0.491722
vt 0.945193 0.292677
vt 0.926532 0.297071
vt 0.988726 0.280366
vt 0.958519 0.294097
vt 0.863855 0.283740
vt 0.893258 0.294985
vt 0.907748 0.292850
vt 0.920678 0.160458
vt 0.921373 0.162447
vt 0.919115 0.159544
vt 0.917750 0.161374
vt 0.965128 0.713200
vt 0.946672 0.710315
vt 0.863871 0.494002
vt 0.861150 0.313793
vt 0.852512 0.286293
vt 0.920150 0.158261
vt 0.979607 0.493691
vt 0.990939 0.314040
vt 0.931823 0.716454
vt 0.965620 0.715424
vt 0.902504 0.715203
vt 0.997056 0.284169
vt 0.885335 0.714885
vt 0.867231 0.716424
vt 0.936801 0.411319
vt 0.936801 0.653701
vt 0.908059 0.411319
vt 0.908059 0.653701
vt 0.908059 0.411319
vt 0.908059 0.653701
vt 0.936801 0.411319
vt 0.936801 0.653701
vn -0.018762 -0.000371 0.999824
vn 0.712683 0.006935 0.701452
vn 0.006274 -0.089944 0.995927
vn 0.720324 -0.100807 0.686273
vn 0.019842 0.245513 0.969190
vn 0.714058 0.192763 0.673025
vn 0.013259 0.999912 0.000142
vn 0.975981 0.217846 0.002125
vn 0.675622 -0.097967 -0.730710
vn 0.667802 0.006629 -0.744310
vn 0.006274 -0.089944 -0.995927
vn -0.018762 -0.000371 -0.999824
vn 0.999988 0.004714 0.001382
vn 0.732919 -0.037672 0.679272
vn -0.015111 -0.999886 -0.000033
vn 0.032229 -0.115414 0.992795
vn 0.999956 0.009316 -0.000859
vn 0.990176 -0.139822 0.001517
vn -0.999931 -0.011716 0.000619
vn -0.736103 -0.007955 0.676823
vn -0.999304 -0.037308 0.000448
vn -0.722620 -0.026366 0.690742
vn 0.002016 0.131620 0.991298
vn 0.714406 0.129831 0.687582
vn -0.988457 0.151482 -0.002413
vn -0.717474 0.156806 0.678707
vn 0.002016 0.131620 -0.991298
vn 0.671746 0.128819 -0.729495
vn 0.993215 0.116265 -0.002616
vn -0.960086 0.279703 -0.001544
vn -0.710492 0.271709 0.649134
vn 0.019824 0.243854 -0.969609
vn 0.657603 0.193966 -0.727966
vn -0.975618 -0.219475 -0.000535
vn -0.701582 -0.191030 0.686506
vn -0.677783 -0.028027 -0.734728
vn -0.691735 -0.007365 -0.722114
vn -0.675449 0.154430 -0.721055
vn -0.659049 0.270517 -0.701766
vn 0.032530 -0.101569 -0.994297
vn -0.659394 -0.178959 -0.730187
vn 0.687782 -0.036206 -0.725014
vn 0.709082 0.161482 0.686386
vn 0.703138 0.119864 0.700878
vn 0.015653 0.003149 0.999873
vn 0.000450 -0.105337 0.994437
vn -0.032521 0.244155 0.969191
vn 0.657156 0.339386 0.673025
vn -0.198470 0.980107 0.000142
vn 0.907853 0.419284 0.002126
vn 0.665248 0.151399 -0.731111
vn 0.015653 0.003149 -0.999873
vn 0.659294 0.108753 -0.743979
vn 0.000450 -0.105337 -0.994437
vn 0.997149 0.075457 -0.000805
vn 0.720776 0.020169 0.692874
vn 0.196649 -0.980474 -0.000033
vn 0.010085 -0.094003 0.995521
vn 0.974749 0.223303 0.000651
vn 0.986430 0.164178 0.000854
vn -0.930121 -0.367248 0.001858
vn -0.975500 -0.219998 -0.000490
vn -0.689748 -0.271124 0.671372
vn -0.702819 -0.159192 0.693328
vn -0.025860 0.129071 0.991298
vn 0.670802 0.277951 0.687582
vn -0.998138 -0.060944 -0.002413
vn -0.734408 0.001556 0.678707
vn -0.025859 0.129071 -0.991298
vn 0.629320 0.267942 -0.729496
vn 0.946176 0.323643 -0.002616
vn -0.997519 0.070376 -0.001545
vn -0.751878 0.115337 0.649136
vn -0.032189 0.242532 -0.969609
vn 0.601723 0.328626 -0.727966
vn -0.966683 -0.255978 0.000360
vn -0.702274 -0.211226 0.679850
vn -0.659335 -0.149464 -0.736843
vn -0.647259 -0.258509 -0.717098
vn -0.692830 0.008121 -0.721055
vn -0.701345 0.125049 -0.701768
vn 0.007911 -0.083039 -0.996515
vn -0.660050 -0.197940 -0.724675
vn 0.676215 0.018487 -0.736472
vn 0.000000 0.000000 1.000000
vn 0.000000 0.000000 1.000000
vn 0.000000 0.000000 1.000000
vn 0.000000 0.000000 1.000000
vn 0.000000 1.000000 0.000000
vn 0.000000 1.000000 0.000000
vn 0.000000 1.000000 0.000000
vn 0.000000 1.000000 0.000000
vn 0.000000 0.000000 -1.000000
vn 0.000000 0.000000 -1.000000
vn 0.000000 0.000000 -1.000000
vn 0.000000 0.000000 -1.000000
vn 0.000000 -1.000000 0.000000
vn 0.000000 -1.000000 0.000000
vn 0.000000 -1.000000 0.000000
vn 0.000000 -1.000000 0.000000
vn 1.000000 0.000000 0.000000
vn 1.000000 0.000000 0.000000
vn 1.000000 0.000000 0.000000
vn 1.000000 0.000000 0.000000
vn -1.000000 0.000000 0.000000
vn -1.000000 0.000000 0.000000
vn -1.000000 0.000000 0.000000
vn -1.000000 0.000000 0.000000
vn 0.722373 -0.079379 0.686933
vn 0.701913 -0.123347 0.701501
vn 0.014349 -0.001851 0.999895
vn -0.037619 -0.114638 0.992695
vn 0.049165 0.241349 0.969192
vn 0.732034 0.105656 0.673025
vn 0.133182 0.991092 0.000143
vn 0.995073 0.099121 0.002126
vn 0.677679 -0.074568 -0.731568
vn 0.014349 -0.001851 -0.999895
vn 0.656778 -0.119634 -0.744534
vn -0.037619 -0.114638 -0.992695
vn 0.972027 -0.234868 -0.000691
vn 0.692849 -0.197699 0.693452
vn -0.135021 -0.990843 -0.000033
vn -0.017008 -0.079725 0.996672
vn 0.994139 -0.108110 0.000608
vn 0.984259 -0.176730 0.000979
vn -0.997974 -0.063586 0.002100
vn -0.993798 0.111198 -0.000505
vn -0.741733 -0.046607 0.669075
vn -0.716673 0.079611 0.692851
vn 0.017800 0.130427 0.991298
vn 0.724825 0.043140 0.687581
vn -0.963127 0.269035 -0.002413
vn -0.693464 0.241793 0.678707
vn 0.017800 0.130427 -0.991298
vn 0.682351 0.047256 -0.729495
vn 0.999989 -0.003795 -0.002616
vn -0.919571 0.392922 -0.001544
vn -0.672742 0.355026 0.649134
vn 0.048947 0.239705 -0.969611
vn 0.676132 0.113629 -0.727966
vn -0.996932 0.078275 0.000292
vn -0.731039 0.036287 0.681371
vn -0.672394 0.074571 -0.736428
vn -0.697553 -0.048248 -0.714907
vn -0.652028 0.234390 -0.721056
vn -0.621814 0.347667 -0.701766
vn -0.015679 -0.070148 -0.997413
vn -0.686776 0.034593 -0.726046
vn 0.649750 -0.185785 -0.737095
vn 0.000000 0.000000 1.000000
vn 0.000000 0.000000 1.000000
vn 0.000000 0.000000 1.000000
vn 0.000000 0.000000 1.000000
vn 0.000000 1.000000 0.000000
vn 0.000000 1.000000 0.000000
vn 0.000000 1.000000 0.000000
vn 0.000000 1.000000 0.000000
vn 0.000000 0.000000 -1.000000
vn 0.000000 0.000000 -1.000000
vn 0.000000 0.000000 -1.000000
vn 0.000000 0.000000 -1.000000
vn 0.000000 -1.000000 0.000000
vn 0.000000 -1.000000 0.000000
vn 0.000000 -1.000000 0.000000
vn 0.000000 -1.000000 0.000000
vn 1.000000 0.000000 0.000000
vn 1.000000 0.000000 0.000000
vn 1.000000 0.000000 0.000000
vn 1.000000 0.000000 0.000000
vn -1.000000 0.000000 0.000000
vn -1.000000 0.000000 0.000000
vn -1.000000 0.000000 0.000000
vn -1.000000 0.000000 0.000000
s 1
g polySurface13
usemtl lambert2SG
f 35/1/1 36/2/2 17/3/3
f 17/3/3 36/2/2 9/4/4
f 23/5/5 4/6/6 32/7/7
f 32/7/7 4/6/6 31/8/8
f 12/9/9 38/10/10 20/11/11
f 20/11/11 38/10/10 39/12/12
f 28/13/13 2/14/14 27/15/15
f 27/15/15 2/14/14 18/16/16
f 36/2/2 37/17/17 9/4/4
f 9/4/4 37/17/17 29/18/18
f 41/19/19 42/20/20 25/21/21
f 25/21/21 42/20/20 10/22/22
f 24/23/23 17/3/3 13/24/24
f 13/24/24 17/3/3 9/4/4
f 34/25/25 25/21/21 14/26/26
f 14/26/26 25/21/21 10/22/22
f 21/27/27 16/28/28 20/11/11
f 20/11/11 16/28/28 12/9/9
f 9/4/4 29/18/18 13/24/24
f 13/24/24 29/18/18 30/29/29
f 23/5/5 24/23/23 4/6/6
f 24/23/23 13/24/24 4/6/6
f 33/30/30 34/25/25 3/31/31
f 34/25/25 14/26/26 3/31/31
f 22/32/32 6/33/33 21/27/27
f 6/33/33 16/28/28 21/27/27
f 31/8/8 4/6/6 30/29/29
f 13/24/24 30/29/29 4/6/6
f 42/20/20 35/1/1 10/22/22
f 10/22/22 35/1/1 17/3/3
f 26/34/34 27/15/15 1/35/35
f 1/35/35 27/15/15 18/16/16
f 20/11/11 39/12/12 11/36/36
f 11/36/36 39/12/12 40/37/37
f 21/27/27 20/11/11 15/38/38
f 15/38/38 20/11/11 11/36/36
f 22/32/32 21/27/27 5/39/39
f 5/39/39 21/27/27 15/38/38
f 23/5/5 32/7/7 3/31/31
f 3/31/31 32/7/7 33/30/30
f 23/5/5 3/31/31 24/23/23
f 14/26/26 24/23/23 3/31/31
f 10/22/22 17/3/3 14/26/26
f 14/26/26 17/3/3 24/23/23
f 11/40/36 40/41/37 25/21/21
f 25/21/21 40/41/37 41/19/19
f 19/42/40 27/15/15 7/43/41
f 7/43/41 27/15/15 26/34/34
f 19/42/40 8/44/42 27/15/15
f 27/15/15 8/44/42 28/13/13
f 29/18/18 37/17/17 12/9/9
f 12/9/9 37/17/17 38/10/10
f 30/29/29 29/18/18 16/28/28
f 16/28/28 29/18/18 12/9/9
f 31/8/8 30/29/29 6/33/33
f 30/29/29 16/28/28 6/33/33
f 31/8/8 6/33/33 32/7/7
f 32/7/7 6/33/33 22/32/32
f 33/30/30 32/7/7 5/39/39
f 5/39/39 32/7/7 22/32/32
f 33/30/30 5/39/39 34/25/25
f 15/45/38 34/25/25 5/39/39
f 11/40/36 25/21/21 15/45/38
f 15/45/38 25/21/21 34/25/25
f 2/14/14 36/2/2 18/16/16
f 18/16/16 36/2/2 35/1/1
f 28/13/13 37/17/17 2/14/14
f 2/14/14 37/17/17 36/2/2
f 38/10/10 37/17/17 8/44/42
f 8/44/42 37/17/17 28/13/13
f 39/12/12 38/10/10 19/46/40
f 19/46/40 38/10/10 8/44/42
f 40/37/37 39/12/12 7/47/41
f 7/47/41 39/12/12 19/46/40
f 41/19/19 40/41/37 26/34/34
f 26/34/34 40/41/37 7/43/41
f 41/19/19 26/34/34 42/20/20
f 42/20/20 26/34/34 1/35/35
f 18/16/16 35/1/1 1/35/35
f 1/35/35 35/1/1 42/20/20
s 13
f 78/48/43 51/49/44 77/50/45
f 77/50/45 51/49/44 59/51/46
f 65/52/47 46/53/48 74/54/49
f 74/54/49 46/53/48 73/55/50
f 80/56/51 81/57/52 54/58/53
f 54/58/53 81/57/52 62/59/54
f 70/60/55 44/61/56 69/62/57
f 69/62/57 44/61/56 60/63/58
f 79/64/59 71/65/60 78/48/43
f 78/48/43 71/65/60 51/49/44
f 67/66/61 83/67/62 52/68/63
f 52/68/63 83/67/62 84/69/64
f 66/70/65 59/51/46 55/71/66
f 55/71/66 59/51/46 51/49/44
f 76/72/67 67/66/61 56/73/68
f 56/73/68 67/66/61 52/68/63
f 63/74/69 58/75/70 62/59/54
f 62/59/54 58/75/70 54/58/53
f 51/49/44 71/65/60 55/71/66
f 55/71/66 71/65/60 72/76/71
f 65/52/47 66/70/65 46/53/48
f 66/70/65 55/71/66 46/53/48
f 75/77/72 76/72/67 45/78/73
f 76/72/67 56/73/68 45/78/73
f 64/79/74 48/80/75 63/74/69
f 48/80/75 58/75/70 63/74/69
f 73/55/50 46/53/48 72/76/71
f 55/71/66 72/76/71 46/53/48
f 77/50/45 59/51/46 84/69/64
f 84/69/64 59/51/46 52/68/63
f 68/81/76 69/62/57 43/82/77
f 43/82/77 69/62/57 60/63/58
f 81/57/52 82/83/78 62/59/54
f 62/59/54 82/83/78 53/84/79
f 63/74/69 62/59/54 57/85/80
f 57/85/80 62/59/54 53/84/79
f 64/79/74 63/74/69 47/86/81
f 47/86/81 63/74/69 57/85/80
f 65/52/47 74/54/49 45/78/73
f 45/78/73 74/54/49 75/77/72
f 65/52/47 45/78/73 66/70/65
f 56/73/68 66/70/65 45/78/73
f 52/68/63 59/51/46 56/73/68
f 56/73/68 59/51/46 66/70/65
f 82/87/78 83/67/62 53/88/79
f 53/88/79 83/67/62 67/66/61
f 61/89/82 69/62/57 49/90/83
f 49/90/83 69/62/57 68/81/76
f 61/89/82 50/91/84 69/62/57
f 69/62/57 50/91/84 70/60/55
f 79/64/59 80/56/51 71/65/60
f 71/65/60 80/56/51 54/58/53
f 72/76/71 71/65/60 58/75/70
f 58/75/70 71/65/60 54/58/53
f 73/55/50 72/76/71 48/80/75
f 72/76/71 58/75/70 48/80/75
f 73/55/50 48/80/75 74/54/49
f 74/54/49 48/80/75 64/79/74
f 75/77/72 74/54/49 47/86/81
f 47/86/81 74/54/49 64/79/74
f 75/77/72 47/86/81 76/72/67
f 57/92/80 76/72/67 47/86/81
f 53/88/79 67/66/61 57/92/80
f 57/92/80 67/66/61 76/72/67
f 60/63/58 44/61/56 77/50/45
f 77/50/45 44/61/56 78/48/43
f 44/61/56 70/60/55 78/48/43
f 78/48/43 70/60/55 79/64/59
f 79/64/59 70/60/55 80/56/51
f 80/56/51 70/60/55 50/91/84
f 80/56/51 50/91/84 81/57/52
f 81/57/52 50/91/84 61/93/82
f 81/57/52 61/93/82 82/83/78
f 82/83/78 61/93/82 49/94/83
f 82/87/78 49/90/83 83/67/62
f 83/67/62 49/90/83 68/81/76
f 84/69/64 83/67/62 43/82/77
f 43/82/77 83/67/62 68/81/76
f 43/82/77 60/63/58 84/69/64
f 84/69/64 60/63/58 77/50/45
s 26
f 85/95/85 86/96/86 87/97/87
f 87/97/87 86/96/86 88/98/88
s 27
f 87/97/89 88/98/90 89/99/91
f 89/99/91 88/98/90 90/100/92
s 28
f 89/99/93 90/100/94 91/101/95
f 91/101/95 90/100/94 92/102/96
s 29
f 91/101/97 92/102/98 85/95/99
f 85/95/99 92/102/98 86/96/100
s 30
f 86/96/101 92/102/102 88/98/103
f 88/98/103 92/102/102 90/100/104
s 31
f 91/101/105 85/95/106 89/99/107
f 89/99/107 85/95/106 87/97/108
s 32
f 128/103/109 101/104/110 127/105/111
f 127/105/111 101/104/110 109/106/112
f 115/107/113 96/108/114 124/109/115
f 124/109/115 96/108/114 123/110/116
f 130/111/117 131/112/118 104/113/119
f 104/113/119 131/112/118 112/114/120
f 120/115/121 94/116/122 119/117/123
f 119/117/123 94/116/122 110/118/124
f 129/119/125 121/120/126 128/103/109
f 128/103/109 121/120/126 101/104/110
f 117/121/127 133/122/128 102/123/129
f 102/123/129 133/122/128 134/124/130
f 116/125/131 109/106/112 105/126/132
f 105/126/132 109/106/112 101/104/110
f 126/127/133 117/121/127 106/128/134
f 106/128/134 117/121/127 102/123/129
f 113/129/135 108/130/136 112/114/120
f 112/114/120 108/130/136 104/113/119
f 101/104/110 121/120/126 105/126/132
f 105/126/132 121/120/126 122/131/137
f 115/107/113 116/125/131 96/108/114
f 116/125/131 105/126/132 96/108/114
f 125/132/138 126/127/133 95/133/139
f 126/127/133 106/128/134 95/133/139
f 114/134/140 98/135/141 113/129/135
f 98/135/141 108/130/136 113/129/135
f 123/110/116 96/108/114 122/131/137
f 105/126/132 122/131/137 96/108/114
f 127/105/111 109/106/112 134/124/130
f 134/124/130 109/106/112 102/123/129
f 118/136/142 119/117/123 93/137/143
f 93/137/143 119/117/123 110/118/124
f 131/112/118 132/138/144 112/114/120
f 112/114/120 132/138/144 103/139/145
f 113/129/135 112/114/120 107/140/146
f 107/140/146 112/114/120 103/139/145
f 114/134/140 113/129/135 97/141/147
f 97/141/147 113/129/135 107/140/146
f 115/107/113 124/109/115 95/133/139
f 95/133/139 124/109/115 125/132/138
f 115/107/113 95/133/139 116/125/131
f 106/128/134 116/125/131 95/133/139
f 102/123/129 109/106/112 106/128/134
f 106/128/134 109/106/112 116/125/131
f 132/142/144 133/122/128 103/143/145
f 103/143/145 133/122/128 117/121/127
f 111/144/148 119/117/123 99/145/149
f 99/145/149 119/117/123 118/136/142
f 111/144/148 100/146/150 119/117/123
f 119/117/123 100/146/150 120/115/121
f 129/119/125 130/111/117 121/120/126
f 121/120/126 130/111/117 104/113/119
f 122/131/137 121/120/126 108/130/136
f 108/130/136 121/120/126 104/113/119
f 123/110/116 122/131/137 98/135/141
f 122/131/137 108/130/136 98/135/141
f 123/110/116 98/135/141 124/109/115
f 124/109/115 98/135/141 114/134/140
f 125/132/138 124/109/115 97/141/147
f 97/141/147 124/109/115 114/134/140
f 125/132/138 97/141/147 126/127/133
f 107/147/146 126/127/133 97/141/147
f 103/143/145 117/121/127 107/147/146
f 107/147/146 117/121/127 126/127/133
f 110/118/124 94/116/122 127/105/111
f 127/105/111 94/116/122 128/103/109
f 94/116/122 120/115/121 128/103/109
f 128/103/109 120/115/121 129/119/125
f 129/119/125 120/115/121 130/111/117
f 130/111/117 120/115/121 100/146/150
f 130/111/117 100/146/150 131/112/118
f 131/112/118 100/146/150 111/148/148
f 131/112/118 111/148/148 132/138/144
f 132/138/144 111/148/148 99/149/149
f 132/142/144 99/145/149 133/122/128
f 133/122/128 99/145/149 118/136/142
f 134/124/130 133/122/128 93/137/143
f 93/137/143 133/122/128 118/136/142
f 93/137/143 110/118/124 134/124/130
f 134/124/130 110/118/124 127/105/111
s 45
f 135/150/151 136/151/152 137/152/153
f 137/152/153 136/151/152 138/153/154
s 46
f 137/152/155 138/153/156 139/154/157
f 139/154/157 138/153/156 140/155/158
s 47
f 139/154/159 140/155/160 141/156/161
f 141/156/161 140/155/160 142/157/162
s 48
f 141/156/163 142/157/164 135/150/165
f 135/150/165 142/157/164 136/151/166
s 49
f 136/151/167 142/157/168 138/153/169
f 138/153/169 142/157/168 140/155/170
s 50
f 141/156/171 135/150/172 139/154/173
f 139/154/173 135/150/172 137/152/174
v -1.225119 -1.571232 0.164999
v 29.527210 -1.571232 0.164999
v -1.225119 11.271268 0.164999
v 29.527210 11.271268 0.164999
v -1.225119 -1.571232 0.100649
v 29.527210 -1.571232 0.100649
v -1.225119 11.271268 0.100649
v 29.527210 11.271268 0.100649
vt 0.005498 0.640870
vt 0.855205 0.640870
vt 0.005498 0.995716
vt 0.855205 0.995716
vt 0.005498 0.640870
vt 0.005498 0.995716
vt 0.855205 0.640870
vt 0.855205 0.995716
vn 0.000000 0.000000 1.000000
vn 0.000000 0.000000 1.000000
vn 0.000000 0.000000 1.000000
vn 0.000000 0.000000 1.000000
vn 0.000000 0.000000 -1.000000
vn 0.000000 0.000000 -1.000000
vn 0.000000 0.000000 -1.000000
vn 0.000000 0.000000 -1.000000
s 1
g polySurface12
f 143/158/175 144/159/176 145/160/177
f 145/160/177 144/159/176 146/161/178
s 2
f 147/162/179 149/163/180 148/164/181
f 148/164/181 149/163/180 150/165/182
