# This file uses centimeters as units for non-parametric coordinates.

mtllib Rock1.mtl
v -3.464074 -4.027884 4.089916
v 4.934034 -4.661511 4.595296
v -3.741457 5.094457 4.249830
v 3.964639 4.608272 3.216450
v -4.684498 4.805629 -4.619848
v 4.572484 4.111787 -4.860582
v -4.266993 -4.238379 -3.942931
v 4.421351 -4.652170 -4.703034
v 0.295357 -5.441828 5.433208
v 4.003701 -0.493007 4.283736
v 0.041345 5.740379 4.604401
v -3.454149 0.254653 4.883475
v -0.470986 -0.335119 5.699807
v 4.683516 5.348927 0.246913
v -0.201304 5.661862 -4.593624
v -4.892669 6.201771 -0.137893
v 0.017123 8.807959 -0.122173
v 5.041297 0.190099 -5.696524
v 0.418724 -5.412639 -4.916548
v -4.813793 0.023066 -4.883695
v -0.017463 -0.247927 -5.896336
v 4.923716 -5.462000 -0.090824
v -4.272130 -4.769934 -0.131077
v -0.188796 -7.035938 0.067680
v 5.598832 -0.232251 0.237955
v -5.177789 0.010388 -0.407517
v -2.628246 -4.723787 5.079674
v -0.224553 -3.140639 5.463741
v -2.773805 0.109629 5.411932
v -3.499261 -2.696971 4.394695
v -2.615168 -2.833147 5.566845
v 3.435623 -5.421104 5.279017
v 4.632026 -3.291562 4.701189
v 2.197005 -0.496605 5.416733
v 2.618931 -3.351857 5.184046
v 2.611942 5.285477 3.812016
v -3.275059 5.888146 4.748288
v -0.361364 8.074846 3.659569
v -3.651032 8.483611 0.002994
v -4.188546 5.635922 2.821118
v -3.636296 7.491199 3.382280
v 4.225323 5.450477 2.718754
v 3.429112 7.356675 0.224657
v 2.928859 7.130939 3.133967
v 4.575555 4.850802 -2.904138
v 3.241723 5.003766 -4.774142
v -0.072739 8.121028 -3.302524
v 3.153126 6.604481 -3.147875
v -2.973198 5.244545 -4.642438
v -5.113925 5.838183 -3.249254
v -3.651108 7.647952 -3.186974
v -3.098711 -0.110127 -5.323318
v 2.956423 -0.117194 -6.028585
v 4.826106 -2.863103 -5.136898
v 2.799814 -5.165850 -5.266520
v 0.180839 -3.182517 -5.303720
v 2.992970 -3.167044 -5.942902
v -2.504234 -4.860362 -4.280184
v -4.478405 -2.744364 -4.253215
v -2.415202 -2.846194 -4.756140
v 0.135420 -6.502009 -3.184383
v -3.366304 -6.385826 0.077475
v -4.425397 -4.710888 -3.123654
v -3.051132 -6.056677 -3.173042
v 4.628475 -5.090812 -3.054479
v 3.133046 -6.656905 -0.091816
v 2.985002 -6.036272 -3.134326
v 5.205375 -5.310476 3.153736
v 0.196644 -6.696396 3.456295
v 3.381338 -6.528338 3.552690
v -3.882553 -4.533237 2.452744
v -2.920396 -6.098118 3.083803
v 5.174030 -3.150090 -0.284334
v 5.307846 -0.370113 3.587784
v 5.482174 -3.000543 2.951679
v 5.329108 0.065048 -3.462109
v 4.940506 -3.111407 -3.043429
v -4.564166 -2.702712 -0.361342
v -5.059559 0.046467 -4.200687
v -4.802634 -2.818506 -3.616189
v -4.627707 0.127148 2.429290
v -4.051875 -2.661492 2.350416
vt 0.779510 0.306450
vt 0.782820 0.265170
vt 0.879272 0.354138
vt 0.828560 0.352590
vt 0.675500 0.150920
vt 0.780589 0.149997
vt 0.987406 0.572900
vt 0.962263 0.676890
vt 0.884240 0.487980
vt 0.857700 0.467040
vt 0.540110 0.076850
vt 0.613264 0.028182
vt 0.459130 0.052250
vt 0.468520 0.006422
vt 0.963579 0.800884
vt 0.868792 0.925115
vt 0.827630 0.851810
vt 0.914106 0.839777
vt 0.735160 0.805260
vt 0.765890 0.762100
vt 0.795870 0.681110
vt 0.786160 0.589110
vt 0.785910 0.559900
vt 0.738220 0.603420
vt 0.745380 0.552370
vt 0.735870 0.684640
vt 0.632650 0.699650
vt 0.654010 0.612500
vt 0.662800 0.552660
vt 0.715250 0.763190
vt 0.704800 0.804500
vt 0.611450 0.826310
vt 0.622980 0.780180
vt 0.516060 0.757590
vt 0.547920 0.686030
vt 0.496130 0.799540
vt 0.428060 0.766010
vt 0.448860 0.739240
vt 0.479970 0.660940
vt 0.575220 0.606070
vt 0.577510 0.558760
vt 0.509200 0.594090
vt 0.536870 0.554630
vt 0.370450 0.560120
vt 0.454870 0.495920
vt 0.510500 0.468720
vt 0.311610 0.723320
vt 0.316900 0.645710
vt 0.284049 0.565311
vt 0.384130 0.496984
vt 0.232385 0.643423
vt 0.242190 0.495710
vt 0.281770 0.469500
vt 0.350590 0.421080
vt 0.432450 0.446490
vt 0.506560 0.419100
vt 0.445020 0.395540
vt 0.505010 0.390380
vt 0.485410 0.353270
vt 0.529150 0.372020
vt 0.390050 0.351690
vt 0.486650 0.261360
vt 0.585670 0.297200
vt 0.623690 0.329850
vt 0.298430 0.368530
vt 0.235880 0.391090
vt 0.295940 0.229840
vt 0.369360 0.244220
vt 0.481880 0.132690
vt 0.591480 0.188400
vt 0.401500 0.100540
vt 0.682030 0.259700
vt 0.712990 0.307190
vt 0.341075 0.056163
vt 0.219890 0.219689
vt 0.735811 0.989474
vt 0.474555 0.981130
vt 0.555840 0.927250
vt 0.753550 0.905400
vt 0.178181 0.425576
vt 0.298445 0.831641
vt 0.374540 0.823100
vt 0.532230 0.407360
vt 0.649920 0.370380
vt 0.660542 0.382384
vt 0.534360 0.458960
vt 0.750800 0.353350
vt 0.760595 0.325013
vn -0.889344 -0.232401 0.393773
vn -0.372782 -0.515565 0.771509
vn -0.285223 -0.077278 0.955341
vn -0.887665 -0.105517 0.448238
vn -0.057647 -0.532389 0.844535
vn 0.018877 -0.053064 0.998413
vn 0.081000 0.105857 0.991077
vn -0.183407 0.088484 0.979047
vn -0.865729 -0.019639 0.500127
vn 0.219419 -0.498529 0.838644
vn 0.190058 0.031064 0.981281
vn 0.711395 -0.252730 0.655778
vn 0.593284 0.083531 0.800648
vn 0.521570 0.154719 0.839063
vn 0.282798 0.127015 0.950733
vn 0.330460 0.234993 0.914098
vn 0.113415 0.253703 0.960610
vn 0.509051 0.199790 0.837228
vn -0.180984 0.264157 0.947347
vn -0.870191 0.049776 0.490193
vn -0.425781 0.780082 0.458457
vn -0.956099 0.120521 0.267114
vn 0.089449 0.863609 0.496164
vn 0.136552 0.990486 -0.017081
vn -0.428553 0.902948 0.032044
vn -0.980298 0.175055 0.091493
vn 0.477302 0.760971 0.439438
vn 0.915373 0.296323 0.272554
vn 0.956613 0.290720 0.019317
vn 0.563130 0.826208 -0.016268
vn 0.492957 0.755124 -0.432182
vn 0.121779 0.855009 -0.504112
vn 0.945183 0.301750 -0.124808
vn 0.715598 0.304063 -0.628860
vn 0.129700 0.372796 -0.918804
vn -0.020512 0.331526 -0.943223
vn -0.377643 0.799593 -0.466943
vn -0.969095 0.199743 -0.144771
vn -0.130533 0.275866 -0.952292
vn -0.527360 0.189294 -0.828287
vn -0.153690 0.014982 -0.988006
vn -0.489870 -0.026332 -0.871398
vn -0.098434 0.075469 -0.992278
vn 0.026226 0.102105 -0.994428
vn 0.743522 0.085420 -0.663233
vn 0.057038 -0.181303 -0.981772
vn -0.182995 -0.190247 -0.964531
vn 0.790804 -0.180461 -0.584862
vn 0.698046 -0.509239 -0.503396
vn 0.125130 -0.618329 -0.775894
vn -0.119265 -0.585381 -0.801938
vn -0.228362 -0.224107 -0.947432
vn -0.461531 -0.247107 -0.852014
vn -0.258037 -0.470291 -0.843945
vn -0.470564 -0.359689 -0.805726
vn -0.377413 -0.876775 -0.298036
vn -0.896657 -0.422727 -0.131561
vn -0.031686 -0.950675 -0.308566
vn -0.047390 -0.998434 -0.029741
vn -0.451991 -0.891941 0.012071
vn -0.933190 -0.349975 0.081690
vn 0.268195 -0.926580 -0.263668
vn 0.810956 -0.553665 -0.189224
vn 0.834673 -0.542499 -0.094951
vn 0.277519 -0.958534 -0.064775
vn 0.257623 -0.940599 0.221141
vn -0.068798 -0.958021 0.278323
vn 0.848335 -0.522550 0.085255
vn -0.430879 -0.851120 0.299896
vn -0.931185 -0.286898 0.224908
vn 0.991393 -0.042152 0.123946
vn 0.991758 -0.108503 -0.068148
vn 0.996782 0.079834 0.007236
vn 0.942191 0.125168 0.310821
vn 0.985849 -0.136897 -0.096750
vn 0.995407 0.054206 -0.078903
vn -0.985690 -0.164596 -0.036389
vn -0.981848 -0.160241 0.101479
vn -0.994282 -0.036545 0.100334
vn -0.996982 -0.031765 -0.070834
vn -0.958733 -0.141228 0.246749
vn -0.961066 -0.030918 0.274585
s 1
usemtl RockBkToMaya:defaultMat
f 1/1/1 27/2/2 31/3/3 30/4/4
f 27/2/2 9/5/5 28/6/6 31/3/3
f 31/3/3 28/7/6 13/8/7 29/9/8
f 30/4/4 31/3/3 29/9/8 12/10/9
f 9/5/5 32/11/10 35/12/11 28/6/6
f 32/11/10 2/13/12 33/14/13 35/12/11
f 35/15/11 33/16/13 10/17/14 34/18/15
f 28/7/6 35/15/11 34/18/15 13/8/7
f 13/8/7 34/18/15 36/20/16 11/21/17
f 34/18/15 10/17/14 4/19/18 36/20/16
f 12/10/9 29/9/8 37/22/19 3/23/20
f 29/9/8 13/8/7 11/21/17 37/22/19
f 3/23/20 37/22/19 41/24/21 40/25/22
f 37/22/19 11/21/17 38/26/23 41/24/21
f 41/24/21 38/26/23 17/27/24 39/28/25
f 40/25/22 41/24/21 39/28/25 16/29/26
f 11/21/17 36/20/16 44/30/27 38/26/23
f 36/20/16 4/19/18 42/31/28 44/30/27
f 44/30/27 42/31/28 14/32/29 43/33/30
f 38/26/23 44/30/27 43/33/30 17/27/24
f 17/27/24 43/33/30 48/34/31 47/35/32
f 43/33/30 14/32/29 45/36/33 48/34/31
f 48/34/31 45/36/33 6/37/34 46/38/35
f 47/35/32 48/34/31 46/38/35 15/39/36
f 16/29/26 39/28/25 51/40/37 50/41/38
f 39/28/25 17/27/24 47/35/32 51/40/37
f 51/40/37 47/35/32 15/39/36 49/42/39
f 50/41/38 51/40/37 49/42/39 5/43/40
f 5/43/40 49/42/39 52/45/41 20/46/42
f 49/42/39 15/39/36 21/44/43 52/45/41
f 15/39/36 46/38/35 53/48/44 21/44/43
f 46/38/35 6/37/34 18/47/45 53/48/44
f 21/44/43 53/48/44 57/49/46 56/50/47
f 53/48/44 18/47/45 54/51/48 57/49/46
f 57/49/46 54/51/48 8/52/49 55/53/50
f 56/50/47 57/49/46 55/53/50 19/54/51
f 20/46/42 52/45/41 60/55/52 59/56/53
f 52/45/41 21/44/43 56/50/47 60/55/52
f 60/55/52 56/50/47 19/54/51 58/57/54
f 59/56/53 60/55/52 58/57/54 7/58/55
f 7/58/55 58/57/54 64/59/56 63/60/57
f 58/57/54 19/54/51 61/61/58 64/59/56
f 64/59/56 61/61/58 24/62/59 62/63/60
f 63/60/57 64/59/56 62/63/60 23/64/61
f 19/54/51 55/53/50 67/65/62 61/61/58
f 55/53/50 8/52/49 65/66/63 67/65/62
f 67/65/62 65/66/63 22/67/64 66/68/65
f 61/61/58 67/65/62 66/68/65 24/62/59
f 24/62/59 66/68/65 70/69/66 69/70/67
f 66/68/65 22/67/64 68/71/68 70/69/66
f 70/69/66 68/71/68 2/13/12 32/11/10
f 69/70/67 70/69/66 32/11/10 9/5/5
f 23/64/61 62/63/60 72/72/69 71/73/70
f 62/63/60 24/62/59 69/70/67 72/72/69
f 72/72/69 69/70/67 9/5/5 27/2/2
f 71/73/70 72/72/69 27/2/2 1/1/1
f 2/13/12 68/71/68 75/74/71 33/14/13
f 68/71/68 22/67/64 73/75/72 75/74/71
f 75/76/71 73/77/72 25/78/73 74/79/74
f 33/16/13 75/76/71 74/79/74 10/17/14
f 22/67/64 65/66/63 77/80/75 73/75/72
f 65/66/63 8/52/49 54/51/48 77/80/75
f 77/81/75 54/51/48 18/47/45 76/82/76
f 73/77/72 77/81/75 76/82/76 25/78/73
f 25/78/73 76/82/76 45/36/33 14/32/29
f 76/82/76 18/47/45 6/37/34 45/36/33
f 10/17/14 74/79/74 42/31/28 4/19/18
f 74/79/74 25/78/73 14/32/29 42/31/28
f 7/58/55 63/60/57 80/83/77 59/56/53
f 63/60/57 23/64/61 78/84/78 80/83/77
f 80/83/77 78/84/78 26/85/79 79/86/80
f 59/56/53 80/83/77 79/86/80 20/46/42
f 23/64/61 71/73/70 82/87/81 78/84/78
f 71/73/70 1/1/1 30/4/4 82/87/81
f 82/87/81 30/4/4 12/10/9 81/88/82
f 78/84/78 82/87/81 81/88/82 26/85/79
f 26/85/79 81/88/82 40/25/22 16/29/26
f 81/88/82 12/10/9 3/23/20 40/25/22
f 5/43/40 20/46/42 79/86/80 50/41/38
f 79/86/80 26/85/79 16/29/26 50/41/38
