# This file uses centimeters as units for non-parametric coordinates.

v -1.097874 1.093842 1.097641
v 1.045189 1.093842 1.097641
v -1.097874 1.093842 -1.045421
v 1.045189 1.093842 -1.045421
v -0.026342 1.468876 1.472676
v -0.026342 1.468876 -1.420459
v -1.472910 0.022311 1.472676
v 1.420225 0.022311 1.472676
v -1.472910 1.468876 0.026109
v 1.420225 1.468876 0.026109
v -1.472910 0.022311 -1.420459
v 1.420225 0.022311 -1.420459
v -0.026342 0.022311 1.954865
v -0.026342 1.951067 0.026109
v -0.026342 0.022311 -1.902647
v 1.902414 0.022311 0.026109
v -1.955099 0.022311 0.026109
v 1.045189 -1.049219 1.097641
v -0.026342 -1.424255 1.472676
v -1.097874 -1.049219 1.097641
v 1.420225 -1.424255 0.026109
v -0.026342 -1.906445 0.026109
v 1.045189 -1.049219 -1.045421
v -0.026342 -1.424255 -1.420459
v -1.097874 -1.049219 -1.045421
v -1.472910 -1.424255 0.026109
vt 0.313439 0.446131
vt 0.344326 0.415244
vt 0.384055 0.420151
vt 0.384055 0.472862
vt 0.423783 0.415244
vt 0.454670 0.446131
vt 0.339419 0.375515
vt 0.384055 0.375515
vt 0.344326 0.335787
vt 0.384055 0.330880
vt 0.423783 0.335787
vt 0.428690 0.375515
vt 0.313439 0.304900
vt 0.384055 0.278169
vt 0.454670 0.304900
vt 0.286708 0.375515
vt 0.481401 0.375515
vt 0.313439 0.446131
vt 0.384055 0.472862
vt 0.384055 0.420151
vt 0.344326 0.415244
vt 0.454670 0.446131
vt 0.423783 0.415244
vt 0.384055 0.375515
vt 0.339419 0.375515
vt 0.384055 0.330880
vt 0.344326 0.335787
vt 0.428690 0.375515
vt 0.423783 0.335787
vt 0.384055 0.278169
vt 0.313439 0.304900
vt 0.454670 0.304900
vt 0.286708 0.375515
vt 0.481401 0.375515
vn 0.707107 -0.000000 0.707107
vn 0.577350 0.577351 0.577350
vn 0.000000 0.707107 0.707107
vn 0.000000 -0.000000 1.000000
vn 0.000000 0.707107 0.707107
vn -0.577350 0.577351 0.577350
vn -0.707107 0.000000 0.707107
vn 0.000000 -0.000000 1.000000
vn 0.000000 0.707107 0.707107
vn 0.577350 0.577351 0.577350
vn 0.707107 0.707107 0.000000
vn 0.000000 1.000000 0.000000
vn 0.707107 0.707107 0.000000
vn 0.577350 0.577351 -0.577350
vn -0.000000 0.707107 -0.707107
vn 0.000000 1.000000 0.000000
vn -0.000000 0.707107 -0.707107
vn -0.577350 0.577351 -0.577350
vn -0.707107 0.707107 0.000000
vn 0.000000 1.000000 0.000000
vn -0.707107 0.707107 0.000000
vn -0.577350 0.577351 0.577350
vn 0.000000 0.707107 0.707107
vn 0.000000 1.000000 0.000000
vn -0.000000 0.707107 -0.707107
vn 0.577350 0.577351 -0.577350
vn 0.707107 0.000000 -0.707107
vn -0.000000 0.000000 -1.000000
vn -0.707107 0.000000 -0.707107
vn -0.577350 0.577351 -0.577350
vn -0.000000 0.707107 -0.707107
vn -0.000000 0.000000 -1.000000
vn 0.707107 0.000000 -0.707107
vn 0.577350 0.577351 -0.577350
vn 0.707107 0.707107 0.000000
vn 1.000000 -0.000000 0.000000
vn 0.707107 0.707107 0.000000
vn 0.577350 0.577351 0.577350
vn 0.707107 -0.000000 0.707107
vn 1.000000 -0.000000 0.000000
vn -0.707107 0.000000 0.707107
vn -0.577350 0.577351 0.577350
vn -0.707107 0.707107 0.000000
vn -1.000000 0.000000 0.000000
vn -0.707107 0.707107 0.000000
vn -0.577350 0.577351 -0.577350
vn -0.707107 0.000000 -0.707107
vn -1.000000 0.000000 0.000000
vn 0.707107 -0.000000 0.707107
vn 0.000000 -0.000000 1.000000
vn 0.000000 -0.707107 0.707107
vn 0.577350 -0.577350 0.577350
vn 0.000000 -0.707107 0.707107
vn 0.000000 -0.000000 1.000000
vn -0.707107 0.000000 0.707107
vn -0.577350 -0.577350 0.577350
vn 0.000000 -0.707107 0.707107
vn 0.000000 -1.000000 0.000000
vn 0.707107 -0.707107 0.000000
vn 0.577350 -0.577350 0.577350
vn 0.707107 -0.707107 0.000000
vn 0.000000 -1.000000 0.000000
vn 0.000000 -0.707107 -0.707107
vn 0.577350 -0.577350 -0.577350
vn 0.000000 -0.707107 -0.707107
vn 0.000000 -1.000000 0.000000
vn -0.707107 -0.707107 0.000000
vn -0.577350 -0.577351 -0.577350
vn -0.707107 -0.707107 0.000000
vn 0.000000 -1.000000 0.000000
vn 0.000000 -0.707107 0.707107
vn -0.577350 -0.577350 0.577350
vn 0.000000 -0.707107 -0.707107
vn -0.000000 0.000000 -1.000000
vn 0.707107 0.000000 -0.707107
vn 0.577350 -0.577350 -0.577350
vn -0.707107 0.000000 -0.707107
vn -0.000000 0.000000 -1.000000
vn 0.000000 -0.707107 -0.707107
vn -0.577350 -0.577351 -0.577350
vn 0.707107 0.000000 -0.707107
vn 1.000000 -0.000000 0.000000
vn 0.707107 -0.707107 0.000000
vn 0.577350 -0.577350 -0.577350
vn 0.707107 -0.707107 0.000000
vn 1.000000 -0.000000 0.000000
vn 0.707107 -0.000000 0.707107
vn 0.577350 -0.577350 0.577350
vn -0.707107 0.000000 0.707107
vn -1.000000 0.000000 0.000000
vn -0.707107 -0.707107 0.000000
vn -0.577350 -0.577350 0.577350
vn -0.707107 -0.707107 0.000000
vn -1.000000 0.000000 0.000000
vn -0.707107 0.000000 -0.707107
vn -0.577350 -0.577351 -0.577350
s off
f 8/1/1 2/2/2 5/3/3 13/4/4
f 5/3/5 1/5/6 7/6/7 13/4/8
f 5/3/9 2/2/10 10/7/11 14/8/12
f 10/7/13 4/9/14 6/10/15 14/8/16
f 6/10/17 3/11/18 9/12/19 14/8/20
f 9/12/21 1/5/22 5/3/23 14/8/24
f 6/10/25 4/9/26 12/13/27 15/14/28
f 11/15/29 3/11/30 6/10/31 15/14/32
f 12/13/33 4/9/34 10/7/35 16/16/36
f 10/7/37 2/2/38 8/1/39 16/16/40
f 7/6/41 1/5/42 9/12/43 17/17/44
f 9/12/45 3/11/46 11/15/47 17/17/48
f 8/18/49 13/19/50 19/20/51 18/21/52
f 19/20/53 13/19/54 7/22/55 20/23/56
f 19/20/57 22/24/58 21/25/59 18/21/60
f 21/25/61 22/24/62 24/26/63 23/27/64
f 24/26/65 22/24/66 26/28/67 25/29/68
f 26/28/69 22/24/70 19/20/71 20/23/72
f 24/26/73 15/30/74 12/31/75 23/27/76
f 11/32/77 15/30/78 24/26/79 25/29/80
f 12/31/81 16/33/82 21/25/83 23/27/84
f 21/25/85 16/33/86 8/18/87 18/21/88
f 7/22/89 17/34/90 26/28/91 20/23/92
f 26/28/93 17/34/94 11/32/95 25/29/96
